<svg width="60" height="60" viewBox="0 0 60 60" fill="none" xmlns="http://www.w3.org/2000/svg">
<mask id="mask0_320_133" style="mask-type:alpha" maskUnits="userSpaceOnUse" x="0" y="0" width="60" height="60">
<circle cx="30" cy="30" r="30" fill="#3546AB"/>
</mask>
<g mask="url(#mask0_320_133)">
<circle cx="30" cy="30" r="30" fill="#00BAFF"/>
<path d="M41.5 35.0001C52.3 38.2001 49.6667 48.0001 47 52.5001L71 60.5001L79.5 -12.9999C63.6667 -13.8333 29.5 -14.9999 19.5 -12.9999C7.00001 -10.4999 13.5 4.00006 12 14.0001C10.5 24.0001 28 31.0001 41.5 35.0001Z" fill="#4D17E2"/>
<path d="M51.54 -30.73V-24.07H34.44V32H26.25V-24.07H9.06V-30.73H51.54Z" fill="white"/>
<path d="M30.204 65.686C25.696 65.686 21.6453 64.902 18.052 63.334C14.524 61.7007 11.7473 59.4793 9.722 56.67C7.69667 53.7953 6.65133 50.496 6.586 46.772H16.092C16.4187 49.9733 17.7253 52.6847 20.012 54.906C22.364 57.062 25.7613 58.14 30.204 58.14C34.4507 58.14 37.7827 57.0947 40.2 55.004C42.6827 52.848 43.924 50.104 43.924 46.772C43.924 44.1587 43.2053 42.0353 41.768 40.402C40.3307 38.7687 38.534 37.5273 36.378 36.678C34.222 35.8287 31.3147 34.914 27.656 33.934C23.148 32.758 19.522 31.582 16.778 30.406C14.0993 29.23 11.78 27.4007 9.82 24.918C7.92533 22.37 6.978 18.9727 6.978 14.726C6.978 11.002 7.92533 7.70266 9.82 4.828C11.7147 1.95333 14.3607 -0.268005 17.758 -1.836C21.2207 -3.404 25.1733 -4.188 29.616 -4.188C36.0187 -4.188 41.2453 -2.58734 45.296 0.613999C49.412 3.81533 51.7313 8.062 52.254 13.354H42.454C42.1273 10.7407 40.7553 8.454 38.338 6.494C35.9207 4.46867 32.7193 3.456 28.734 3.456C25.01 3.456 21.972 4.436 19.62 6.396C17.268 8.29066 16.092 10.9693 16.092 14.432C16.092 16.9147 16.778 18.94 18.15 20.508C19.5873 22.076 21.3187 23.2847 23.344 24.134C25.4347 24.918 28.342 25.8327 32.066 26.878C36.574 28.1193 40.2 29.3607 42.944 30.602C45.688 31.778 48.04 33.64 50 36.188C51.96 38.6707 52.94 42.068 52.94 46.38C52.94 49.712 52.058 52.848 50.294 55.788C48.53 58.728 45.9167 61.1127 42.454 62.942C38.9913 64.7713 34.908 65.686 30.204 65.686Z" fill="white"/>
</g>
</svg>
